<svg xmlns="http://www.w3.org/2000/svg" width="960" height="540" viewBox="0 0 960 540">
  <rect width="960" height="540" fill="#f1f5f9"/>
  <rect x="24" y="24" width="912" height="48" rx="8" fill="#fff" stroke="#e2e8f0"/>
  <rect x="40" y="40" width="80" height="16" rx="4" fill="#cbd5e1"/>
  <rect x="140" y="40" width="60" height="16" rx="4" fill="#e2e8f0"/>
  <rect x="220" y="40" width="60" height="16" rx="4" fill="#e2e8f0"/>
  <rect x="300" y="96" width="280" height="200" rx="12" fill="#fff" stroke="#e2e8f0"/>
  <circle cx="440" cy="176" r="52" fill="none" stroke="#1d4ed8" stroke-width="10"/>
  <text x="440" y="184" text-anchor="middle" fill="#0f172a" font-family="system-ui,sans-serif" font-size="22" font-weight="700">72%</text>
  <text x="440" y="252" text-anchor="middle" fill="#64748b" font-family="system-ui,sans-serif" font-size="13">Readiness</text>
  <rect x="620" y="96" width="140" height="88" rx="10" fill="#fff" stroke="#e2e8f0"/>
  <rect x="780" y="96" width="140" height="88" rx="10" fill="#fff" stroke="#e2e8f0"/>
  <rect x="620" y="208" width="140" height="88" rx="10" fill="#fff" stroke="#e2e8f0"/>
  <rect x="780" y="208" width="140" height="88" rx="10" fill="#fff" stroke="#e2e8f0"/>
  <rect x="300" y="320" width="620" height="24" rx="6" fill="#e2e8f0"/>
  <rect x="300" y="360" width="480" height="12" rx="4" fill="#1d4ed8" opacity="0.5"/>
  <rect x="300" y="388" width="520" height="12" rx="4" fill="#1d4ed8" opacity="0.35"/>
  <rect x="300" y="416" width="400" height="12" rx="4" fill="#1d4ed8" opacity="0.25"/>
  <text x="480" y="500" text-anchor="middle" fill="#94a3b8" font-family="system-ui,sans-serif" font-size="14">Dashboard preview</text>
</svg>
